<?xml version="1.0" ?><svg contentScriptType="text/ecmascript" contentStyleType="text/css" enable-background="new 0 0 2048 2048" height="2048px" id="Layer_1" preserveAspectRatio="xMidYMid meet" version="1.1" viewBox="-2.3330001831054688 0 772.666015625 2048" width="772.666015625px" xml:space="preserve" xmlns="http://www.w3.org/2000/svg" xmlns:xlink="http://www.w3.org/1999/xlink" zoomAndPan="magnify"><path d="M765,1427c5.333,12.667,3.667,24.333-5,35l-350,384c-6.667,6.667-14.333,10-23,10c-9.333,0-17.333-3.333-24-10L8,1462  c-8.667-10.667-10.333-22.333-5-35c6-12.667,15.667-19,29-19h224V160c0-9.333,3-17,9-23s13.667-9,23-9h192c9.333,0,17,3,23,9  s9,13.667,9,23v1248h224C750,1408,759.667,1414.333,765,1427z"/></svg>